<svg xmlns="http://www.w3.org/2000/svg" xmlns:xlink="http://www.w3.org/1999/xlink" width="213" height="44" viewBox="0 0 213 44">
  <defs>
    <filter id="l2-a" width="109.3%" height="155.3%" x="-4.4%" y="-16.9%" filterUnits="objectBoundingBox">
      <feOffset dy="3" in="SourceAlpha" result="shadowOffsetOuter1"/>
      <feGaussianBlur in="shadowOffsetOuter1" result="shadowBlurOuter1" stdDeviation="2.5"/>
      <feColorMatrix in="shadowBlurOuter1" result="shadowMatrixOuter1" values="0 0 0 0 0   0 0 0 0 0   0 0 0 0 0  0 0 0 0.5 0"/>
      <feMerge>
        <feMergeNode in="shadowMatrixOuter1"/>
        <feMergeNode in="SourceGraphic"/>
      </feMerge>
    </filter>
    <polygon id="l2-b" points=".312 .074 7.044 .074 7.044 30.052 .312 30.052"/>
    <polygon id="l2-d" points=".426 .567 7.156 .567 7.156 35.419 .426 35.419"/>
  </defs>
  <g fill="none" fill-rule="evenodd" filter="url(#l2-a)" transform="translate(5 1)">
    <g transform="translate(187.827 5.366)">
      <mask id="l2-c" fill="#fff">
        <use xlink:href="#l2-b"/>
      </mask>
      <path fill="#FEFEFE" d="M0.360833175,0.0739413176 C0.360833175,0.0739413176 3.93433151,1.25537456 3.93433151,3.30957832 C3.93433151,5.36378207 3.92750143,24.838961 3.92750143,26.7804684 C3.92750143,29.2629182 0.311656592,30.0524186 0.311656592,30.0524186 C0.311656592,30.0524186 7.04406735,29.2378746 7.04406735,26.7842249 L7.04406735,3.30582177 C7.04406735,1.3073401 0.360833175,0.0739413176 0.360833175,0.0739413176" mask="url(#l2-c)"/>
    </g>
    <g transform="translate(197.487)">
      <mask id="l2-e" fill="#fff">
        <use xlink:href="#l2-d"/>
      </mask>
      <path fill="#FEFEFE" d="M7.11018253,0.566637173 C7.11018253,0.566637173 3.53531818,1.7805377 3.53531818,3.89729686 C3.53531818,6.00761623 3.54214826,30.0563702 3.54214826,32.0539932 C3.54214826,34.6067262 7.15594407,35.4187838 7.15594407,35.4187838 C7.15594407,35.4187838 0.425582342,34.580967 0.425582342,32.0572131 L0.425582342,3.89214503 C0.425582342,1.83720785 7.11018253,0.566637173 7.11018253,0.566637173" mask="url(#l2-e)"/>
    </g>
    <path fill="#FEFEFE" d="M31.1256545 12.317347C30.9585991 12.4379708 30.6639859 12.5636736 30.2392249 12.6931855 29.814464 12.8258718 29.5826585 13.069659 29.5418659 13.429626 29.5418659 16.2960298 29.5198508 19.9293476 29.4771157 24.3397369 29.4317906 28.7456822 29.4110706 31.3073521 29.4110706 32.0298255 29.4110706 32.1713998 29.5004258 32.2386953 29.6810787 32.2386953 30.0255495 32.212031 30.3764953 32.1828274 30.7390961 32.1529888 30.8180913 32.3301155 30.8621214 32.4780384 30.8621214 32.5948531 30.8621214 32.7129375 30.7967237 32.8272127 30.6775834 32.9357742 30.5526157 33.0424311 30.4308854 33.1560715 30.3059176 33.2722513L25.7591623 32.6538953C25.7798824 32.4945448 25.9294552 32.3789999 26.2078808 32.3078953 26.4843639 32.2386953 26.7835096 32.1529888 27.1014328 32.0533154 27.4232411 31.953642 27.5592164 31.7117594 27.5190713 31.3295723 27.5190713 28.6644198 27.5022362 26.2354361 27.4743937 24.0489699 27.4426661 21.8612339 27.3915135 20.0099751 27.3202883 18.496463 27.2510057 16.982951 27.0833028 15.0720151 26.8197697 12.7655599 26.6766719 12.6646167 26.5044365 12.5751011 26.3017685 12.4938387 26.0984531 12.4144809 25.9754278 12.2437029 25.9359302 11.9815048 26.1198206 11.9624589 26.3859437 11.9465873 26.734947 11.9351598 27.0833028 11.9281763 27.407701 11.911035 27.7165592 11.8907194L28.7616266 11.8907194C29.3340179 11.8907194 29.9135317 11.8634203 30.5111756 11.8062827L31.1256545 12.317347zM66.5363708 11.8915308C66.5765064 12.2140738 66.4680148 12.4271939 66.2121502 12.5277103 65.9525229 12.6275905 65.8252177 12.7300154 65.8252177 12.8318041 65.5304718 16.1558419 65.3197597 19.4633391 65.1905732 22.7498424 65.0601324 26.0350734 64.9980476 29.5442395 64.9980476 33.2722513L64.3596404 33.2722513C62.4588424 31.2008509 60.4100443 28.961499 58.213246 26.554832 56.0139393 24.1494373 54.253616 22.2249943 52.9272591 20.784684 51.6009022 19.3450098 49.7195449 17.3168695 47.2850685 14.7015356L47.540306 14.7906007 47.540306 31.6429956C47.5610009 31.88538 47.8137299 32.147486 48.3010015 32.4305858 48.7895273 32.7105048 49.2021716 32.9923323 49.5408159 33.2722513L46.6993393 33.2722513 44.0052356 33.2722513C44.1845917 32.9350762 44.481219 32.6233482 44.8932363 32.345974 45.3021179 32.0628741 45.5172198 31.8344856 45.5379147 31.6538107 45.5379147 29.9730244 45.6068978 28.0899331 45.744864 26.0007197 45.8809488 23.9095977 46.0226778 21.7574024 46.1681694 19.547951 46.3149153 17.3384996 46.3901696 15.6233597 46.3901696 14.4025312 46.3506611 14.0818968 46.2584745 13.7816201 46.1111016 13.5023373 45.9618472 13.2243268 45.7893895 13.0468327 45.5924741 12.9781254 45.3949315 12.9081456 45.2143212 12.8667939 45.0456262 12.8585236 44.8806939 12.8489809 44.7151344 12.8419829 44.5589818 12.8419829L44.5589818 11.8915308 45.7304403 11.8915308C46.1154914 11.8915308 46.4967798 11.8635389 46.8736784 11.8062827 47.4857466 11.8062827 47.9642385 11.8234596 48.3104083 11.8495429 48.6559509 11.8800795 49.0667139 11.9513316 49.5408159 12.069661L49.072358 13.0411071C50.3962064 14.6703628 51.8856143 16.4287629 53.5430901 18.3207608 55.2018201 20.2102139 56.9489739 22.1588317 58.7864329 24.1717036 60.6238919 26.1794861 62.4086728 28.1217421 64.1457928 29.992746L64.1457928 28.4519193C64.1457928 25.4936846 64.1006402 22.900617 64.0134706 20.6752611 63.9263011 18.4486329 63.8115383 16.6342489 63.6748263 15.2257475 63.5374872 13.813429 63.3173684 13.0811864 63.0119614 13.019477 62.7071815 12.95904 62.4456729 12.9285034 62.2293168 12.9285034L61.8912996 12.9285034C61.8009944 12.9285034 61.7182147 12.9673103 61.6391977 13.0411071L62.4707576 11.8915308 64.489454 11.8915308 66.5363708 11.8915308zM93.3769634 30.1457947L89.3983063 34.3455497C89.5032709 33.8029827 89.5894918 32.6368686 89.5894918 32.6368686 89.017185 32.5776908 88.2968031 32.5390695 87.4283463 32.5216276 86.5636381 32.4985794 86.0706795 32.4886126 85.95072 32.4886126 84.9854209 32.4886126 83.6639919 32.518513 81.9876827 32.5739533 80.3113736 32.6287706 79.2773476 32.6561793 78.8824809 32.6561793 78.8424944 32.461204 79.0624201 32.2008217 79.5416334 31.8756552 80.0202218 31.5517346 80.2595161 31.1736196 80.2595161 30.7375727L80.2595161 26.6480752 80.2595161 22.6451641C80.2595161 20.9508103 80.2326501 19.3268468 80.1745447 17.7701592 80.1176889 16.2140945 80.0414647 15.0037527 79.9446224 14.1366422 79.850904 13.2695317 79.320458 12.7095228 78.3507853 12.453501L79.2686005 11.9140486C80.1158146 11.985062 81.0911104 12.0162082 82.1963623 12.0162082 83.0435763 12.0162082 84.3162717 11.9819474 86.0125742 11.9121798 87.7057526 11.8424123 88.969701 11.8062827 89.7969218 11.8062827 89.9143821 11.8062827 90.0787017 11.8953609 90.2861316 12.0697797 90.4929368 12.2466901 90.7034908 12.4316986 90.9209174 12.6272968L90.9209174 13.2452377C89.4033046 13.2452377 87.843831 13.2209436 86.2462453 13.1729785 84.6455356 13.1262591 83.3184835 13.0801628 82.259466 13.0346893L82.1688716 13.1206528 82.2888311 21.8739839 81.7021541 31.4539355 81.7858758 31.6009456C83.8732963 31.6009456 85.8232631 31.4539355 87.639525 31.1642758 89.4570365 30.8721243 91.182704 30.3538513 92.8102796 29.6113257L93.3769634 30.1457947zM109.37482 20.1518536C109.925825 19.1342922 110.480701 18.1731575 111.040739 17.2646877 111.602067 16.3580988 112.164686 15.58568 112.735047 14.9486853 113.102169 15.5060557 113.607364 16.2822362 114.247408 17.2822427 114.890032 18.2784873 115.446199 19.2333524 115.912037 20.1518536L109.37482 20.1518536zM124.948132 31.0559988C124.571332 30.6879714 124.078396 29.90991 123.466096 28.7224415 122.855732 27.5305843 121.959543 25.9205427 120.776882 23.8891816 119.595512 21.8578206 118.394785 19.8421337 117.173412 17.838986 115.948168 15.8370923 115.141662 14.4489956 114.759055 13.6765769 114.369352 12.9022772 114.087397 11.9223336 113.901578 10.7329843 112.986032 11.6659056 112.220174 12.6646581 111.60981 13.72548 110.998801 14.7869288 110.267138 16.1110753 109.410951 17.6998002 108.554765 19.2891521 107.627605 21.0440223 106.627537 22.9681726 105.631341 24.8948307 104.613208 26.6001708 103.575073 28.0904625 102.534357 29.5776194 101.281369 30.9086625 99.8167539 32.0798299 100.120645 32.0992657 100.565192 32.1375105 101.154909 32.1989529L102.341441 32.1989529 103.071168 32.1989529 104.654501 32.1989529C104.817092 32.0992657 104.895807 31.991428 104.895807 31.8704241 104.895807 31.7920537 104.77967 31.6516139 104.546751 31.4553744 104.311897 31.2566271 104.19576 31.0572528 104.19576 30.8591324 104.19576 30.779508 104.350609 30.3431416 104.657081 29.55066 104.961618 28.7594324 105.374549 27.8553513 105.89523 26.8453135 106.416555 25.8340217 107.371459 24.0277405 108.758649 21.4289778L116.628214 21.4289778C117.731514 23.2082995 118.686418 24.8409119 119.491634 26.3255609 120.297495 27.8077021 120.996897 29.2910972 121.590485 30.7744923 121.590485 31.0108575 121.398214 31.2152475 121.016898 31.3826467 120.636227 31.5519268 120.476216 31.822148 120.537511 32.1989529L125.575916 32.1989529C125.533333 31.8020851 125.326222 31.4202645 124.948132 31.0559988zM153.481675 21.8950573C152.99666 22.0977634 152.654482 22.3954482 152.451334 22.7861994 152.249456 23.177588 152.148517 23.6550311 152.148517 24.2185288 152.148517 24.6781235 152.228506 25.3710216 152.385311 26.2965856 152.544655 27.2221495 152.341507 27.3330642 152.341507 27.6766447 152.09773 27.786922 151.709844 33.42891 150.203375 34.3455497 150.728386 32.6907536 150.601418 28.8756708 150.337961 29.1306471 149.939918 29.5143864 149.808506 29.7521518 149.210489 30.244256 147.820195 31.3890996 146.433076 31.9991304 145.36147 32.4925095 144.28923 32.9839763 143.081134 33.2306659 141.737818 33.2306659 139.793311 33.2306659 138.019576 32.8284408 136.413437 32.0271778 134.810473 31.2214527 133.618883 30.2002726 132.835494 28.9668248 132.052104 27.7308272 131.542965 26.6765002 131.303631 25.8032064 131.062393 24.9299126 130.942408 24.0374956 130.942408 23.1361544 130.942408 21.709562 131.526459 19.6104697 132.700273 16.8363276 133.870913 14.067285 135.805898 12.5336026 138.498878 12.2410173 141.193128 11.9509818 142.801171 11.8062827 143.324277 11.8062827 144.585064 11.8062827 145.767766 11.986041 146.869209 12.3449201 147.973191 12.7031618 149.083522 13.2825955 150.204645 14.0864082L148.099524 15.2624864C147.358669 14.5198679 146.471801 13.9665694 145.438286 13.6025907 144.407944 13.2424367 143.319833 13.0633159 142.179665 13.0633159 141.035053 13.0633159 139.846003 13.2424367 138.616958 13.6025907 137.382199 13.9665694 136.327734 14.6760409 135.455467 15.7329177 134.585105 16.789157 133.974392 17.9499365 133.621422 19.2178062 133.272896 20.4837635 133.097681 21.6005596 133.097681 22.5681947 133.097681 25.1613036 134.069617 27.2999173 136.016029 28.9795736 137.96244 30.6585925 140.319592 31.4987394 143.087483 31.4987394 144.28923 31.4987394 145.482724 31.2864716 146.669235 30.8644859 147.651964 30.4616233 148.559781 29.8649788 149.392053 29.0688153 150.22242 28.2720144 150.641413 27.4025452 150.641413 26.4565832 150.641413 26.1563486 150.648396 25.8478273 150.668711 25.5361188 150.688391 25.2244102 150.708071 24.9082396 150.725846 24.5850572 150.725846 24.0215596 150.646492 23.5536781 150.486513 23.1807752 150.325899 22.8085098 150.094183 22.5490715 149.792 22.4101094 149.490453 22.2717847 149.117803 22.1704317 148.676591 22.1098748 148.233475 22.048043 147.80242 21.9173677 147.379618 21.7172113L148.131266 21.2620786 153.362326 21.3245478 153.481675 21.8950573z"/>
    <path fill="#FEFEFE" d="M76.2041885 22.539267C76.2041885 22.539267 78.6489849 20.7851775 80.6171022 20.5761499 82.5792775 20.372348 83.4144564 21.3832285 85.1547975 21.1695559 87.0945253 20.9320774 89.0837696 20.3926702 89.0837696 20.3926702 89.0837696 20.3926702 86.9096636 22.0886965 84.9831402 22.3795932 82.9476805 22.6850057 81.895289 21.7426398 80.3305665 21.7885097 78.619275 21.8384441 76.2041885 22.539267 76.2041885 22.539267M177.094241 31.1357666L173.116668 35.4188482C173.219138 34.8670323 173.307861 33.6764055 173.307861 33.6764055 172.734281 33.6167154 172.016369 33.5760753 171.146626 33.5570253 170.280008 33.5348003 169.788278 33.5252753 169.666439 33.5252753 168.703599 33.5252753 167.380241 33.5551203 165.704487 33.6122704 164.026858 33.6687855 162.993414 33.6979955 162.597906 33.6979955 162.559167 33.4973352 162.780352 33.2319048 163.257086 32.9010693 163.736944 32.5689638 163.978123 32.1828832 163.978123 31.7415575L163.978123 27.5708711 163.978123 23.4884499C163.978123 21.7637872 163.948756 20.1077047 163.890648 18.5208372 163.83379 16.9333348 163.756938 15.7020679 163.662591 14.8162415 163.566994 13.9342252 163.037151 13.3627243 162.068063 13.1011039L162.984667 12.5511931C163.832541 12.6242182 164.806627 12.6566032 165.914424 12.6566032 166.759799 12.6566032 169.168461 12.5861181 170.86296 12.514998 172.557458 12.4445129 172.108841 10.5229999 173.353473 8.80341731 173.427826 8.70689716 175.682159 6.25134839 175.49284 6.4513737 174.023275 7.99252106 173.757103 11.7218818 175.025478 12.6038981L174.639342 13.9081901C173.119167 13.9081901 171.562128 13.8846951 169.962601 13.836435 168.3637 13.789445 167.036592 13.7392799 165.976906 13.6910198L165.885058 13.7818249 166.004398 22.7029536 165.418946 32.4673636 165.503296 32.6197639C167.590179 32.6197639 169.541476 32.4730786 171.358438 32.1733582 173.175401 31.8768127 174.896141 31.3503969 176.525659 30.5934758L177.094241 31.1357666z"/>
    <path fill="#FEFEFE" d="M160.994764 23.6125654C160.994764 23.6125654 163.441542 21.8570513 165.407018 21.6484351 167.372494 21.4409811 168.206353 22.4544259 169.946034 22.2411608 171.887082 22.0040706 173.874346 21.4659686 173.874346 21.4659686 173.874346 21.4659686 171.70156 23.161629 169.774376 23.4515997 167.740237 23.7578414 166.686525 22.8152912 165.122463 22.8617795 163.410511 22.9105922 160.994764 23.6125654 160.994764 23.6125654M19.3193717 30.0787093C18.1294419 31.8497715 16.9351188 33.6274221 15.7445614 35.4188482L15.6949809 33.3860497C14.1498294 33.235716 12.5450559 33.1368911 10.8819155 33.088976 9.21877514 33.0434567 7.19915791 33.0183012 4.82180859 33.0183012 4.82180859 33.0183012 4.10446164 32.1133046 4.34106689 32.0013031 4.57892734 31.7916745 6.57595097 31.962372 6.57595097 31.962372 9.37567518 31.962372 11.6124421 31.8713333 13.2906448 31.6946464 14.9663372 31.5167615 16.5698555 31.0537818 18.0986895 30.3033114 18.2756727 30.1362075 18.5643688 30.052356 18.9622673 30.052356 19.1191673 30.052356 19.2396665 30.0631369 19.3193717 30.0787093"/>
    <path fill="#FEFEFE" d="M0.317777414,3.21989529 C1.39968965,4.5437072 2.52617021,8.53465706 2.48160188,10.1045985 C2.48160188,11.9552914 2.54942325,14.9938269 3.30966844,17.6848853 C3.78506391,19.3681345 5.16151464,22.6767201 5.16151464,25.8606671 C5.16151464,29.0439847 4.73779259,30.0637542 4.73779259,30.0637542 C4.73779259,30.0637542 4.73779259,28.9860719 3.63133548,27.9782626 C4.04536876,29.0540565 4.22945532,29.6193362 3.70044868,29.9284145 C3.1733798,30.2362338 2.73415572,30.1776915 2.53715081,30.3300274 C2.34272957,30.4848813 2.34789691,30.5887467 2.34789691,30.5887467 C2.34789691,30.5887467 2.00297683,30.7889237 1.80790967,30.9204865 C1.24337755,31.295661 0.461171155,31.3220995 0.282897855,31.497097 C-0.291323026,32.069301 0.167278578,32.1353971 0.282897855,32.3059882 C0.421124254,32.5061652 0.720830091,32.6855691 0.720830091,32.6855691 C0.720830091,32.6855691 0.553537394,32.3550882 0.974675768,32.0579702 C1.24337755,31.8697535 2.20967051,31.7847727 2.74513633,32.2719959 C3.26251645,32.7390755 1.73944239,32.8668614 1.43133962,32.9008538 C1.1251746,32.9361051 0.85905649,32.3953754 0.85905649,32.3953754 C0.85905649,32.3953754 0.927523772,33.0890705 0.871974845,33.2722513 C1.46363551,33.1545372 3.38330307,33.2313346 3.38330307,33.2313346 C3.38330307,33.2313346 3.34067249,32.9896115 3.54994985,32.9172204 C3.75728944,32.8448294 4.0796024,32.8492358 4.28758792,32.8127255 C4.4942816,32.7768448 4.70743446,32.1977164 4.70743446,32.1977164 L5.76221815,31.6827957 C5.76221815,31.6827957 6.31318599,28.7638628 6.53086027,25.7574312 C6.66391933,23.9331768 6.42815935,19.3668755 5.97989243,17.4614173 C5.8952772,17.1082749 6.4481828,15.4917514 6.60061939,15.1952628 C6.14072595,15.1732308 5.82358033,15.5975052 5.7021478,15.3526347 C5.53679285,15.0215243 6.27830643,12.9738019 6.53086027,12.6382852 C6.20854731,12.5948505 5.2693829,13.4792803 5.24225436,13.3338687 C5.14536669,12.8063583 7.45000123,10.3293255 7.79685907,9.83580743 C7.33438196,9.63437148 5.5458357,10.8008116 5.47220108,10.3740191 C5.40696338,9.98625491 6.89709564,9.09678927 9.65968586,7.81767096 C8.90073251,7.77297736 4.29856852,7.05410279 4.04536876,6.78594118 C3.84319651,6.57128599 1.33057645,3.53400948 0.317777414,3.21989529"/>
  </g>
</svg>
