<svg id="Layer_1" xmlns="http://www.w3.org/2000/svg" viewBox="0 0 426.496 160"><style>.st0{fill:#fff}</style><path class="st0" d="M141.695 77.361c-.431.35-.827.719-1.185 1.104-.359.386-.714.745-1.064 1.078-.35.332-.709.606-1.077.821a2.387 2.387 0 0 1-1.226.323h-.701c-.467 0-.871-.098-1.212-.296-.306-.162-.584-.422-.836-.781-.252-.359-.377-.88-.377-1.562V71.61h3.555c.61 0 1.122.104 1.535.31.413.206.795.44 1.145.7.35.261.701.508 1.05.741.35.233.768.377 1.253.431a7.667 7.667 0 0 1-.283-1.266 9.761 9.761 0 0 1 0-2.707c.063-.44.157-.849.283-1.226-.485.054-.903.198-1.253.431-.35.234-.701.481-1.05.741-.35.261-.732.494-1.145.7-.413.207-.925.31-1.535.31h-3.555V65.82c0-.682.125-1.199.377-1.549.252-.35.53-.606.836-.768.341-.198.744-.305 1.212-.323h.835c.449 0 .831.09 1.145.269.314.18.606.413.875.7.27.287.544.602.822.943.279.342.597.673.957.997a5.91 5.91 0 0 0 1.279.862c.494.252 1.099.431 1.818.539v-.161a6.518 6.518 0 0 1-.62-1.253 8.4 8.4 0 0 1-.485-2.572 40.207 40.207 0 0 1-.026-1.535h-.108a2.923 2.923 0 0 1-.768.377c-.314.108-.705.162-1.171.162h-13.44v.189c.502.054.951.18 1.347.377.34.18.651.454.929.822.279.368.418.893.418 1.576v12.929c0 .683-.139 1.208-.418 1.576-.278.368-.588.642-.929.822a3.914 3.914 0 0 1-1.347.377v.189h13.305c.467 0 .857.054 1.172.161.314.108.569.233.767.377h.108c.197-1.131.445-2.155.741-3.071.296-.916.741-1.813 1.333-2.693v-.162c-.7.072-1.315.234-1.845.485-.53.249-1.01.549-1.441.899zM160.657 81.577a7.642 7.642 0 0 0 1.777.188c.934 0 1.787-.144 2.559-.431a6.089 6.089 0 0 0 1.98-1.172 5.033 5.033 0 0 0 1.266-1.778 5.67 5.67 0 0 0 .444-2.249c0-1.293-.373-2.428-1.117-3.407-.746-.979-1.818-1.791-3.22-2.438l-4.821-2.236c-.808-.377-1.428-.799-1.859-1.266a2.343 2.343 0 0 1-.646-1.643c0-.682.238-1.234.714-1.656.475-.422 1.144-.633 2.006-.633.647 0 1.19.117 1.63.35.44.233.839.53 1.199.889.359.359.701.75 1.023 1.172.324.422.682.831 1.078 1.226a6.8 6.8 0 0 0 1.374 1.051c.521.305 1.167.512 1.939.619v-.162a11.92 11.92 0 0 1-1.158-2.747c-.252-.916-.377-1.921-.377-3.017h-.108c-.342.377-.836.566-1.482.566-.288 0-.602-.036-.943-.108a62.692 62.692 0 0 1-1.105-.242c-.395-.09-.817-.17-1.265-.242a8.968 8.968 0 0 0-1.401-.108c-.826 0-1.576.121-2.249.364a5.102 5.102 0 0 0-1.724 1.01 4.49 4.49 0 0 0-1.105 1.535 4.84 4.84 0 0 0-.39 1.966 5.12 5.12 0 0 0 1.01 3.084c.673.925 1.656 1.675 2.95 2.249l3.825 1.724c1.256.575 2.168 1.167 2.734 1.778.566.611.849 1.347.849 2.209s-.279 1.576-.835 2.141c-.558.566-1.392.849-2.505.849-.791 0-1.46-.144-2.007-.431a5.997 5.997 0 0 1-1.468-1.077 11.425 11.425 0 0 1-1.199-1.414c-.368-.512-.764-.996-1.185-1.454s-.902-.849-1.441-1.172c-.538-.323-1.185-.512-1.939-.566v.162c.825 1.383 1.185 3.574 1.077 6.572h.108a3.44 3.44 0 0 1 1.024-.795c.377-.189.79-.283 1.239-.283.377 0 .75.063 1.118.189.367.126.767.265 1.199.417.431.152.907.291 1.427.417zM188.226 70.291l-4.821-2.236c-.808-.377-1.428-.799-1.859-1.266a2.343 2.343 0 0 1-.646-1.643c0-.682.238-1.234.714-1.656.475-.422 1.144-.633 2.006-.633.647 0 1.19.117 1.63.35.44.233.839.53 1.199.889.359.359.701.75 1.023 1.172.324.422.682.831 1.078 1.226a6.8 6.8 0 0 0 1.374 1.051c.521.305 1.167.512 1.939.619v-.162a11.92 11.92 0 0 1-1.158-2.747c-.252-.916-.377-1.921-.377-3.017h-.108c-.342.377-.836.566-1.482.566-.288 0-.601-.036-.943-.108a62.692 62.692 0 0 1-1.105-.242c-.395-.09-.817-.17-1.265-.242a8.968 8.968 0 0 0-1.401-.108c-.826 0-1.576.121-2.249.364a5.102 5.102 0 0 0-1.724 1.01 4.49 4.49 0 0 0-1.105 1.535 4.84 4.84 0 0 0-.39 1.966 5.12 5.12 0 0 0 1.01 3.084c.673.925 1.656 1.675 2.949 2.249l3.825 1.724c1.256.575 2.168 1.167 2.734 1.778.566.611.849 1.347.849 2.209s-.279 1.576-.835 2.141c-.558.566-1.392.849-2.505.849-.791 0-1.46-.144-2.007-.431a5.997 5.997 0 0 1-1.468-1.077 11.425 11.425 0 0 1-1.199-1.414c-.368-.512-.764-.996-1.185-1.454s-.902-.849-1.441-1.172c-.538-.323-1.185-.512-1.939-.566v.162c.825 1.383 1.185 3.574 1.077 6.572h.108a3.44 3.44 0 0 1 1.024-.795c.377-.189.79-.283 1.239-.283.377 0 .75.063 1.118.189.367.126.767.265 1.199.417.431.153.907.292 1.427.418a7.642 7.642 0 0 0 1.777.188c.934 0 1.787-.144 2.559-.431a6.089 6.089 0 0 0 1.98-1.172 5.033 5.033 0 0 0 1.266-1.778 5.67 5.67 0 0 0 .444-2.249c0-1.293-.373-2.428-1.117-3.407-.745-.98-1.818-1.793-3.219-2.439zM215.318 81.523c.314.108.569.233.767.377h.108c.197-1.131.445-2.155.741-3.071.296-.916.741-1.813 1.333-2.693v-.162c-.7.072-1.315.234-1.845.485-.53.252-1.01.552-1.441.902-.431.35-.827.719-1.185 1.104-.359.386-.714.745-1.064 1.078-.35.332-.709.606-1.077.821a2.387 2.387 0 0 1-1.226.323h-.701c-.467 0-.871-.098-1.212-.296-.306-.162-.584-.422-.836-.781-.252-.359-.377-.88-.377-1.562V71.61h3.555c.61 0 1.122.104 1.535.31.413.206.795.44 1.145.7.35.261.701.508 1.05.741.35.233.768.377 1.253.431a7.667 7.667 0 0 1-.283-1.266 9.761 9.761 0 0 1 0-2.707c.063-.44.157-.849.283-1.226-.485.054-.903.198-1.253.431-.35.234-.701.481-1.05.741-.35.261-.732.494-1.145.7-.413.207-.925.31-1.535.31h-3.555V65.82c0-.682.125-1.199.377-1.549.252-.35.53-.606.836-.768.341-.198.744-.305 1.212-.323h.835c.449 0 .831.09 1.145.269.314.18.606.413.875.7.27.287.544.602.822.943.279.342.597.673.957.997a5.91 5.91 0 0 0 1.279.862c.494.252 1.099.431 1.818.539v-.161a6.518 6.518 0 0 1-.62-1.253 8.4 8.4 0 0 1-.485-2.572 40.207 40.207 0 0 1-.026-1.535h-.108a2.923 2.923 0 0 1-.768.377c-.314.108-.705.162-1.171.162h-13.44v.189c.502.054.951.18 1.347.377.34.18.651.454.928.822.279.368.418.893.418 1.576v12.929c0 .683-.139 1.208-.418 1.576-.278.368-.588.642-.928.822a3.914 3.914 0 0 1-1.347.377v.189h13.305c.467-.004.857.05 1.172.158zM241.488 74.277l-9.724-11.771h-5.926v.189c.61.108 1.149.314 1.617.619.413.269.785.656 1.118 1.158.331.503.498 1.194.498 2.074v8.35c0 1.454-.167 2.599-.498 3.434-.333.835-.705 1.459-1.118 1.872a3.446 3.446 0 0 1-1.617.97v.189h7.407v-.189a3.426 3.426 0 0 1-1.642-.97c-.414-.413-.786-1.037-1.118-1.872-.333-.835-.499-1.98-.499-3.434v-8.458h.108L242.861 81.9h.135a37.372 37.372 0 0 1-.31-3.151 99.603 99.603 0 0 1-.135-3.327c-.027-1.122-.04-2.226-.04-3.313v-3.138c0-1.436.166-2.576.498-3.421.332-.844.705-1.472 1.118-1.885a3.433 3.433 0 0 1 1.643-.97v-.189h-7.407v.189c.61.161 1.149.485 1.616.97.198.215.395.476.593.781.197.306.373.673.525 1.104.153.431.279.929.377 1.495.099.566.148 1.208.148 1.926v5.306h-.134zM268.242 75.328a5.689 5.689 0 0 1-1.158 1.67c-.413.413-.957.795-1.63 1.145-.673.35-1.504.525-2.491.525-1.042 0-1.989-.22-2.842-.66a6.601 6.601 0 0 1-2.195-1.831c-.61-.781-1.086-1.719-1.427-2.815-.341-1.095-.512-2.29-.512-3.582 0-1.041.108-1.989.323-2.842.216-.853.521-1.58.915-2.182.395-.601.866-1.068 1.414-1.4a3.441 3.441 0 0 1 1.818-.498c.574 0 1.068.117 1.481.35.413.233.79.53 1.132.889.341.359.668.75.983 1.172.314.422.673.831 1.078 1.226a7.01 7.01 0 0 0 1.4 1.051c.53.305 1.181.512 1.953.619v-.162a11.462 11.462 0 0 1-1.158-2.72c-.252-.916-.377-1.93-.377-3.044h-.107c-.342.377-.836.566-1.482.566-.288 0-.584-.036-.889-.108a44.357 44.357 0 0 1-.983-.242c-.35-.09-.737-.17-1.158-.242a8.389 8.389 0 0 0-1.387-.108c-1.293 0-2.469.265-3.528.795a8.452 8.452 0 0 0-2.735 2.168c-.763.916-1.355 1.993-1.777 3.232-.423 1.239-.633 2.577-.633 4.013 0 1.419.206 2.707.62 3.865.412 1.158.992 2.151 1.737 2.976a7.787 7.787 0 0 0 2.68 1.926c1.041.458 2.199.687 3.475.687.825 0 1.566-.09 2.222-.269a7.584 7.584 0 0 0 1.764-.714 6.596 6.596 0 0 0 1.36-1.01 9.037 9.037 0 0 0 1.01-1.158 9.112 9.112 0 0 0 1.428-3.178l-.324-.11zM290.351 81.523c.314.108.569.233.767.377h.108c.197-1.131.445-2.155.741-3.071.296-.916.741-1.813 1.333-2.693v-.162c-.7.072-1.315.234-1.845.485-.53.252-1.01.552-1.441.902-.431.35-.827.719-1.185 1.104-.359.386-.714.745-1.064 1.078-.35.332-.709.606-1.077.821a2.387 2.387 0 0 1-1.226.323h-.701c-.467 0-.871-.098-1.212-.296-.306-.162-.584-.422-.836-.781-.252-.359-.377-.88-.377-1.562V71.61h3.555c.61 0 1.122.104 1.535.31.413.206.795.44 1.145.7.35.261.701.508 1.05.741.35.233.768.377 1.253.431a7.667 7.667 0 0 1-.283-1.266 9.761 9.761 0 0 1 0-2.707c.063-.44.157-.849.283-1.226-.485.054-.903.198-1.253.431-.35.234-.701.481-1.05.741-.35.261-.732.494-1.145.7-.413.207-.925.31-1.535.31h-3.555V65.82c0-.682.125-1.199.377-1.549.252-.35.53-.606.836-.768.341-.198.744-.305 1.212-.323h.835c.449 0 .831.09 1.145.269.314.18.606.413.875.7.27.287.544.602.822.943.279.342.597.673.957.997a5.91 5.91 0 0 0 1.279.862c.494.252 1.099.431 1.818.539v-.161a6.518 6.518 0 0 1-.62-1.253 8.4 8.4 0 0 1-.485-2.572 40.207 40.207 0 0 1-.026-1.535h-.108a2.923 2.923 0 0 1-.768.377c-.314.108-.705.162-1.171.162h-13.44v.189c.502.054.951.18 1.347.377.34.18.651.454.929.822.279.368.418.893.418 1.576v12.929c0 .683-.139 1.208-.418 1.576-.278.368-.588.642-.929.822a3.914 3.914 0 0 1-1.347.377v.189h13.305c.467-.004.858.05 1.172.158zM82.069 42.086l1.815 6.668-1.678 3.659c7.771 7.492 19.107 14.047 24.533 16.495C98.281 59.279 79.925 35.24 87.09 3.846c-.58.558-11.756 18.034-7.805 36.612.032.134 2.784 1.628 2.784 1.628z"/><path class="st0" d="M72.887 56.803l4.524 5.224.072 4.025c10.248 3.388 23.305 4.387 29.256 4.244C94.945 65.28 67.99 51.561 60.854 20.161c-.281.755-2.787 21.347 8.82 36.38.085.108 3.213.262 3.213.262zM106.739 73.131c-11.444 5.771-39.32 17.506-67.911 2.691.395.702 14.507 15.906 33.481 16.743.138.004 2.274-2.285 2.274-2.285l6.91-.084 3.121 2.542c9.203-5.641 18.394-14.969 22.125-19.607z"/><path class="st0" d="M67.338 74.951c.124.061 3.021-1.125 3.021-1.125l6.312 2.813 1.772 3.615c10.718-1.278 22.967-5.909 28.295-8.563-12.808.458-43.038-.536-62.816-25.947.066.802 6.529 20.513 23.416 29.207zM338.649 52.413l-1.678-3.659 1.815-6.668s2.752-1.493 2.783-1.628c3.952-18.577-7.224-36.053-7.805-36.612 7.165 31.394-11.191 55.433-19.649 65.062 5.427-2.448 16.763-9.004 24.534-16.495z"/><path class="st0" d="M343.372 66.053l.072-4.025 4.524-5.224s3.127-.154 3.213-.262c11.607-15.034 9.101-35.626 8.82-36.38-7.136 31.4-34.092 45.12-45.885 50.136 5.951.142 19.008-.858 29.256-4.245zM339.361 90.196l6.91.084s2.136 2.289 2.274 2.285c18.974-.837 33.086-16.041 33.481-16.743-28.591 14.815-56.467 3.08-67.911-2.691 3.731 4.638 12.922 13.966 22.124 19.608l3.122-2.543z"/><path class="st0" d="M344.183 76.639l6.312-2.813s2.898 1.186 3.021 1.125c16.886-8.693 23.349-28.405 23.415-29.207-19.778 25.411-50.008 26.405-62.816 25.947 5.329 2.653 17.578 7.285 28.295 8.563l1.773-3.615zM201.93 41.951l2.079.916c-.008-.041.427 1.12.427 1.12l5.181 1.859c.133-3.586.802-11.505.81-11.596.008.092.676 8.011.81 11.596l5.181-1.859s.435-1.161.427-1.12l2.079-.916s.938.418.979.399c6.344-2.897 7.728-10.018 7.758-10.28-5.693 6.493-12.463 9.962-12.999 10.231l-.037-.294 1.144-1.323s.754-.16.775-.19c2.834-4.133 1.972-8.451 1.919-8.848-1.155 4.359-2.806 6.416-5.054 8.647l-.303-.085c-.758-5.776-1.535-8.448-2.68-14.01v-.002.002c-1.144 5.563-1.922 8.234-2.68 14.01l-.303.085c-2.248-2.232-3.899-4.288-5.054-8.647-.053.397-.915 4.715 1.919 8.848.021.03.775.19.775.19l1.144 1.323-.036.294c-.536-.269-7.306-3.738-12.999-10.231.03.262 1.413 7.383 7.758 10.28.043.019.98-.399.98-.399zM379.928 97.631s6.555 2.364 6.555 6.475-.013 43.082-.013 46.968c0 4.968-6.633 6.548-6.633 6.548s12.35-1.63 12.35-6.541v-46.983c0-3.999-12.259-6.467-12.259-6.467zM405.81 151.074c0-3.886-.014-50.673-.014-54.779 0-4.118 6.558-6.48 6.558-6.48s-12.262 2.471-12.262 6.47v54.796c0 4.911 12.346 6.541 12.346 6.541s-6.628-1.58-6.628-6.548zM67.521 113.525c.08-.71.527-1.192 1.35-1.453.822-.255 1.392-.502 1.715-.741l-1.189-1.008a34.975 34.975 0 0 1-3.385.166H63.99c-.598.042-1.226.073-1.9.088-.675.022-1.19.054-1.545.091.076.519.314.856.707 1.013a4.67 4.67 0 0 1 1.002.536c.51 4.551.834 8.322.969 11.31.138 2.985.236 6.639.298 10.955.054 4.317.086 9.11.086 14.369.078.754-.185 1.231-.807 1.429a31.41 31.41 0 0 1-1.729.502c-.54.14-.828.37-.869.683L69 152.684c.241-.23.477-.455.718-.666.231-.213.357-.438.357-.67 0-.232-.084-.524-.237-.874-.702.059-1.381.117-2.048.169-.349 0-.522-.132-.522-.411 0-1.427.04-6.482.128-15.176.082-8.704.125-15.874.125-21.531zM136.222 110.576h-4.034l-1.66 2.263c.158-.144.323-.22.503-.22h.675c.432 0 .954.059 1.564.179.611.122 1.05 1.564 1.324 4.346.274 2.772.503 6.345.677 10.73.175 4.383.265 9.49.265 15.316v3.034c-3.471-3.685-7.036-7.51-10.708-11.464a807.89 807.89 0 0 1-10.475-11.521 366.573 366.573 0 0 1-8.932-10.4l.936-1.911a16.344 16.344 0 0 0-2.459-.436 40.63 40.63 0 0 0-2.87-.083c-.753.112-1.513.166-2.283.166h-2.341v1.872c.312 0 .642.015.973.032.337.017.697.098 1.091.237.394.135.739.484 1.036 1.033.295.548.478 1.14.558 1.772 0 2.405-.151 5.782-.443 10.133-.291 4.351-.574 8.589-.847 12.707-.275 4.116-.414 7.823-.414 11.134-.04.355-.471.805-1.287 1.363-.823.546-1.416 1.16-1.774 1.826h11.059c-.677-.553-1.501-1.109-2.478-1.659-.974-.558-1.478-1.074-1.52-1.551v-32.822c4.612 4.885 8.207 8.706 10.762 11.438 2.65 2.839 6.167 6.627 10.56 11.364 4.39 4.74 8.483 9.149 12.28 13.231h1.275c0-7.343.125-14.254.384-20.724.258-6.472.68-12.986 1.269-19.532 0-.201.254-.401.773-.599.51-.198.728-.617.647-1.253l-4.086-.001zM180.994 149.682c-3.642.582-7.553.879-11.738.879l-.168-.296 1.089-17.847c1.62.508 3.286 1.116 5.655.711 3.656-.626 7.782-4.287 7.782-4.287s-3.774 1.165-7.456 1.676c-2.382.334-3.874-.706-5.916-1.148l-.219-15.977.182-.174c2.124.091 4.785.184 7.994.279 3.203.095 6.33.144 9.374.144v-1.243a65.075 65.075 0 0 0-1.274-1.121c-.416-.35-.745-.531-.981-.531-1.658 0-4.193.073-7.588.213-3.401.142-5.953.211-7.652.211-2.217 0-4.172-.064-5.872-.206l-1.84 1.084c1.944.516 3.007 1.642 3.196 3.387.195 1.745.348 4.177.461 7.307.081 2.189.122 4.469.145 6.791-3.406 1.011-6.997 3.939-6.997 3.939s3.869-1.274 7.016-1.565c0 .217.005.422.005.64v16.278c0 .876-.48 1.637-1.439 2.288-.962.653-1.402 1.177-1.323 1.571.792 0 2.865-.056 6.228-.166 3.361-.113 6.011-.171 7.947-.171.24 0 1.228.02 2.962.066 1.742.034 3.187.112 4.334.232 0 0-.173 2.344-.383 3.436l7.979-8.447-1.137-1.074a40.256 40.256 0 0 1-10.366 3.121zM250.673 145.676c-1.186-2.381-2.925-5.599-5.222-9.658a680.746 680.746 0 0 0-6.997-12.091c-2.378-3.999-3.946-6.773-4.688-8.317-.756-1.547-1.304-3.504-1.665-5.883-1.778 1.865-3.264 3.861-4.45 5.98a336.552 336.552 0 0 0-4.27 7.943 806.515 806.515 0 0 0-5.404 10.527c-1.934 3.852-3.912 7.258-5.928 10.236a37.782 37.782 0 0 1-7.298 7.972c.591.039 1.453.115 2.599.237h6.795c.316-.198.469-.414.469-.656 0-.157-.225-.438-.678-.83-.455-.396-.681-.795-.681-1.192 0-.159.301-1.03.896-2.613.592-1.583 1.394-3.389 2.405-5.408 1.012-2.019 2.866-5.631 5.56-10.823h15.282c2.142 3.556 3.996 6.817 5.56 9.786a84.996 84.996 0 0 1 4.076 8.89c0 .472-.373.881-1.113 1.216-.739.338-1.05.878-.931 1.63h9.784c-.083-.793-.486-1.556-1.22-2.283-.735-.735-1.692-2.289-2.881-4.663zm-27.363-17.127a118.854 118.854 0 0 1 3.235-5.77c1.09-1.811 2.183-3.355 3.29-4.627a435.608 435.608 0 0 1 2.937 4.664c1.248 1.989 2.328 3.898 3.232 5.733H223.31zM301.303 128.995l-1.484.893a8.815 8.815 0 0 0 2.56.773c.871.117 1.606.318 2.201.59.597.274 1.055.783 1.372 1.515.316.732.472 1.652.472 2.76-.035.634-.075 1.255-.112 1.87-.04.612-.054 1.219-.054 1.808 0 1.86-.827 3.568-2.467 5.134-1.642 1.566-3.433 2.738-5.374 3.531-2.341.83-4.697 1.246-7.068 1.246-5.463 0-10.115-1.652-13.955-4.95-3.842-3.301-5.76-7.505-5.76-12.602 0-1.901.346-4.096 1.034-6.585.697-2.493 1.902-4.774 3.62-6.849 1.72-2.078 3.801-3.472 6.239-4.187 2.425-.71 4.772-1.062 7.031-1.062 2.25 0 4.397.352 6.431 1.062 2.039.715 3.79 1.801 5.253 3.262l4.154-2.312c-2.212-1.578-4.403-2.719-6.582-3.424-2.174-.705-4.507-1.057-6.996-1.057-1.033 0-4.206.284-9.522.854-5.315.575-9.134 3.59-11.445 9.032-2.316 5.452-3.469 9.578-3.469 12.382 0 1.772.236 3.526.713 5.242.472 1.718 1.477 3.79 3.022 6.218 1.547 2.425 3.898 4.432 7.062 6.015 3.169 1.576 6.669 2.366 10.507 2.366 2.651 0 5.035-.485 7.151-1.451 2.115-.969 4.852-2.168 7.597-4.419 1.18-.967 1.439-1.434 2.224-2.188.52-.502.771 6.996-.265 10.251 2.973-1.804 3.739-12.891 4.22-13.109 0-.675.401-.893.087-2.711-.31-1.821-.467-3.181-.467-4.086 0-1.106.198-2.046.597-2.814.401-.768 1.077-1.353 2.033-1.752l-.236-1.121-10.324-.125zM347.485 150.786c-3.644.592-7.556.881-11.741.881l-.169-.301 1.087-17.842c1.621.508 3.288 1.116 5.656.711 3.657-.626 7.78-4.282 7.78-4.282s-3.771 1.162-7.455 1.671c-2.382.332-3.872-.71-5.917-1.15l-.218-15.974.185-.179c2.125.095 4.786.193 7.992.286 3.207.095 6.329.142 9.378.142l.774-2.572c-2.536-1.737-2.012-9.057.913-12.112-.4.437-4.131 4.438-4.267 4.612-2.496 3.394-1.595 7.184-4.993 7.324-3.398.14-8.228.279-9.923.279-2.222 0-4.175-.064-5.875-.208l-1.838 1.084c1.943.516 3.005 1.644 3.197 3.384.19 1.75.344 4.177.458 7.309.081 2.19.124 4.47.149 6.792-3.405 1.01-7.001 3.94-7.001 3.94s3.873-1.278 7.022-1.566c0 .215.006.42.006.636v16.282c0 .871-.483 1.632-1.445 2.288-.957.653-1.4 1.177-1.323 1.573.793 0 2.865-.059 6.229-.169 3.361-.115 6.015-.174 7.946-.174.244 0 1.23.02 2.968.063 1.744.037 3.184.118 4.334.235 0 0-.179 2.349-.384 3.438l7.976-8.45-1.14-1.072a39.902 39.902 0 0 1-10.361 3.121zM355.776 100.037l-.024.028a.52.52 0 0 0 .024-.028zM43.759 146.922a27.464 27.464 0 0 1-9.598 2.909c-3.35.37-7.815.56-13.404.56 0 0-.396-.036-.953-.07.333-2.015.975-6.237 1.28-10.562.258-3.631-.199-12.72-1.069-16.512-.164-.702.909-3.92 1.204-4.51-.892-.044-1.506.8-1.742.313-.321-.658 1.117-4.735 1.608-5.403-.625-.086-2.447 1.674-2.5 1.385-.188-1.05 4.282-5.98 4.955-6.962-.897-.401-4.367 1.921-4.509 1.072-.127-.773 2.763-2.542 8.122-5.09-1.472-.088-10.399-1.52-10.889-2.053-.393-.426-5.266-6.472-7.231-7.096 2.098 2.633 4.284 10.579 4.197 13.701 0 3.685.132 9.732 1.607 15.088.922 3.35 3.592 9.935 3.592 16.273 0 6.335-.822 8.364-.822 8.364s0-2.144-2.146-4.15c.804 2.141 1.16 3.267.135 3.881-1.023.614-1.874.497-2.257.8-.377.308-.367.514-.367.514s-.668.399-1.047.661c-1.095.746-2.612.8-2.957 1.148-1.115 1.14-.225 1.27 0 1.61.268.399.849.756.849.756s-.324-.658.492-1.25c.521-.374 2.396-.543 3.434.428 1.003.927-1.95 1.182-2.548 1.25-.594.071-1.11-1.006-1.11-1.006s.133 1.38.026 1.745c1.148-.235 4.871-.081 4.871-.081s-.083-.482.323-.626c.403-.144 1.028-.135 1.43-.208.376-.066.759-1.071.806-1.199 4.621.002 8.563.053 11.815.146 3.321.1 6.524.306 9.608.622l.099 4.253c2.377-3.749 4.761-7.466 7.137-11.171a3.626 3.626 0 0 0-.713-.056c-.798-.001-1.374.176-1.728.526z"/></svg>